<svg xmlns="http://www.w3.org/2000/svg" width="24" height="24" fill="none"><path fill="#fff" d="M0 0h24v24H0z" style="mix-blend-mode:multiply"/><g fill="#2A254B"><path d="M12 12H3v1.5h9V12ZM9 8.25H1.5v1.5H9v-1.5Z"/><path d="m22.44 12.455-2.25-5.25a.749.749 0 0 0-.69-.455h-2.25v-1.5a.75.75 0 0 0-.75-.75h-12V6h11.25v9.417a2.992 2.992 0 0 0-1.393 1.833H9.643a3 3 0 1 0 0 1.5h4.714a2.985 2.985 0 0 0 5.786 0h1.607a.75.75 0 0 0 .75-.75v-5.25a.747.747 0 0 0-.06-.295ZM6.75 19.5a1.5 1.5 0 1 1 0-3 1.5 1.5 0 0 1 0 3Zm10.5-11.25h1.756L20.613 12H17.25V8.25Zm0 11.25a1.5 1.5 0 1 1 0-3 1.5 1.5 0 0 1 0 3ZM21 17.25h-.857A2.996 2.996 0 0 0 17.25 15v-1.5H21v3.75Z"/></g></svg>